<mxfile host="app.diagrams.net" modified="2023-08-07T11:36:38.705Z" agent="Mozilla/5.0 (Windows NT 10.0; Win64; x64) AppleWebKit/537.36 (KHTML, like Gecko) Chrome/115.0.0.0 Safari/537.36" etag="H6PXlxa3V6K2MURULyb5" version="21.5.2" type="github">
  <diagram name="第 1 页" id="iX5eoNO0QXhDanVq4XIH">
    <mxGraphModel dx="1050" dy="542" grid="1" gridSize="10" guides="1" tooltips="1" connect="1" arrows="1" fold="1" page="1" pageScale="1" pageWidth="3300" pageHeight="2339" math="0" shadow="0">
      <root>
        <mxCell id="0" />
        <mxCell id="1" parent="0" />
        <mxCell id="-ehJBVwQ3Iy3KnU1lAVW-9" style="edgeStyle=orthogonalEdgeStyle;rounded=0;orthogonalLoop=1;jettySize=auto;html=1;entryX=0;entryY=0.5;entryDx=0;entryDy=0;" edge="1" parent="1" source="-ehJBVwQ3Iy3KnU1lAVW-1" target="-ehJBVwQ3Iy3KnU1lAVW-2">
          <mxGeometry relative="1" as="geometry" />
        </mxCell>
        <mxCell id="-ehJBVwQ3Iy3KnU1lAVW-10" value="&lt;font style=&quot;font-size: 16px;&quot;&gt;触发OA自动成流程&lt;/font&gt;" style="edgeLabel;html=1;align=center;verticalAlign=middle;resizable=0;points=[];" vertex="1" connectable="0" parent="-ehJBVwQ3Iy3KnU1lAVW-9">
          <mxGeometry x="-0.0057" y="2" relative="1" as="geometry">
            <mxPoint as="offset" />
          </mxGeometry>
        </mxCell>
        <mxCell id="-ehJBVwQ3Iy3KnU1lAVW-1" value="&lt;font style=&quot;font-size: 14px;&quot;&gt;ICS系统&lt;/font&gt;" style="rounded=1;whiteSpace=wrap;html=1;strokeWidth=1;fillWeight=4;hachureGap=8;hachureAngle=45;fillColor=#dae8fc;sketch=1;strokeColor=#6c8ebf;shadow=0;glass=0;" vertex="1" parent="1">
          <mxGeometry x="270" y="396" width="140" height="52" as="geometry" />
        </mxCell>
        <mxCell id="-ehJBVwQ3Iy3KnU1lAVW-11" style="edgeStyle=orthogonalEdgeStyle;rounded=0;orthogonalLoop=1;jettySize=auto;html=1;entryX=0;entryY=0.5;entryDx=0;entryDy=0;" edge="1" parent="1" source="-ehJBVwQ3Iy3KnU1lAVW-2" target="-ehJBVwQ3Iy3KnU1lAVW-3">
          <mxGeometry relative="1" as="geometry">
            <Array as="points">
              <mxPoint x="850" y="422" />
              <mxPoint x="850" y="422" />
            </Array>
          </mxGeometry>
        </mxCell>
        <mxCell id="-ehJBVwQ3Iy3KnU1lAVW-12" value="&lt;font style=&quot;font-size: 16px;&quot;&gt;获取外发工单链接&lt;/font&gt;" style="edgeLabel;html=1;align=center;verticalAlign=middle;resizable=0;points=[];" vertex="1" connectable="0" parent="-ehJBVwQ3Iy3KnU1lAVW-11">
          <mxGeometry x="-0.0071" y="1" relative="1" as="geometry">
            <mxPoint as="offset" />
          </mxGeometry>
        </mxCell>
        <mxCell id="-ehJBVwQ3Iy3KnU1lAVW-2" value="&lt;font style=&quot;font-size: 14px;&quot;&gt;泛微OA&lt;/font&gt;" style="rounded=1;whiteSpace=wrap;html=1;strokeWidth=1;fillWeight=4;hachureGap=8;hachureAngle=45;fillColor=#ffe6cc;sketch=1;strokeColor=#d79b00;shadow=0;glass=0;" vertex="1" parent="1">
          <mxGeometry x="620" y="396" width="140" height="52" as="geometry" />
        </mxCell>
        <mxCell id="-ehJBVwQ3Iy3KnU1lAVW-23" style="edgeStyle=orthogonalEdgeStyle;rounded=0;orthogonalLoop=1;jettySize=auto;html=1;exitX=0.5;exitY=1;exitDx=0;exitDy=0;strokeColor=#FF8000;" edge="1" parent="1" source="-ehJBVwQ3Iy3KnU1lAVW-3">
          <mxGeometry relative="1" as="geometry">
            <mxPoint x="690" y="450" as="targetPoint" />
            <mxPoint x="1020" y="438" as="sourcePoint" />
            <Array as="points">
              <mxPoint x="1020" y="530" />
              <mxPoint x="691" y="530" />
            </Array>
          </mxGeometry>
        </mxCell>
        <mxCell id="-ehJBVwQ3Iy3KnU1lAVW-24" value="&lt;span style=&quot;font-size: 16px;&quot;&gt;外发工单链接&lt;/span&gt;" style="edgeLabel;html=1;align=center;verticalAlign=middle;resizable=0;points=[];" vertex="1" connectable="0" parent="-ehJBVwQ3Iy3KnU1lAVW-23">
          <mxGeometry x="-0.0591" y="-1" relative="1" as="geometry">
            <mxPoint as="offset" />
          </mxGeometry>
        </mxCell>
        <mxCell id="-ehJBVwQ3Iy3KnU1lAVW-34" style="edgeStyle=orthogonalEdgeStyle;rounded=0;orthogonalLoop=1;jettySize=auto;html=1;exitX=0.5;exitY=0;exitDx=0;exitDy=0;entryX=0.5;entryY=0;entryDx=0;entryDy=0;strokeColor=#00CC00;" edge="1" parent="1" source="-ehJBVwQ3Iy3KnU1lAVW-3" target="-ehJBVwQ3Iy3KnU1lAVW-2">
          <mxGeometry relative="1" as="geometry">
            <Array as="points">
              <mxPoint x="1020" y="320" />
              <mxPoint x="690" y="320" />
            </Array>
          </mxGeometry>
        </mxCell>
        <mxCell id="-ehJBVwQ3Iy3KnU1lAVW-35" value="&lt;span style=&quot;font-size: 16px;&quot;&gt;新增客户表单内容到OA系统&lt;/span&gt;" style="edgeLabel;html=1;align=center;verticalAlign=middle;resizable=0;points=[];" vertex="1" connectable="0" parent="-ehJBVwQ3Iy3KnU1lAVW-34">
          <mxGeometry x="-0.0191" y="2" relative="1" as="geometry">
            <mxPoint as="offset" />
          </mxGeometry>
        </mxCell>
        <mxCell id="-ehJBVwQ3Iy3KnU1lAVW-3" value="&lt;font style=&quot;font-size: 14px;&quot;&gt;外发工单系统&lt;/font&gt;" style="rounded=1;whiteSpace=wrap;html=1;strokeWidth=1;fillWeight=4;hachureGap=8;hachureAngle=45;fillColor=#fff2cc;sketch=1;strokeColor=#d6b656;shadow=0;glass=0;" vertex="1" parent="1">
          <mxGeometry x="950" y="396" width="140" height="52" as="geometry" />
        </mxCell>
        <mxCell id="-ehJBVwQ3Iy3KnU1lAVW-7" style="edgeStyle=orthogonalEdgeStyle;rounded=0;orthogonalLoop=1;jettySize=auto;html=1;entryX=0;entryY=0.5;entryDx=0;entryDy=0;" edge="1" parent="1" source="-ehJBVwQ3Iy3KnU1lAVW-4" target="-ehJBVwQ3Iy3KnU1lAVW-1">
          <mxGeometry relative="1" as="geometry" />
        </mxCell>
        <mxCell id="-ehJBVwQ3Iy3KnU1lAVW-8" value="&lt;font style=&quot;font-size: 16px;&quot;&gt;填写工单&lt;/font&gt;" style="edgeLabel;html=1;align=center;verticalAlign=middle;resizable=0;points=[];" vertex="1" connectable="0" parent="-ehJBVwQ3Iy3KnU1lAVW-7">
          <mxGeometry x="-0.1627" y="-4" relative="1" as="geometry">
            <mxPoint y="-4" as="offset" />
          </mxGeometry>
        </mxCell>
        <mxCell id="-ehJBVwQ3Iy3KnU1lAVW-4" value="运营" style="shape=umlActor;verticalLabelPosition=bottom;verticalAlign=top;html=1;fontSize=16;fontColor=#000000;" vertex="1" parent="1">
          <mxGeometry x="110" y="392" width="30" height="60" as="geometry" />
        </mxCell>
        <mxCell id="-ehJBVwQ3Iy3KnU1lAVW-32" style="edgeStyle=orthogonalEdgeStyle;rounded=0;orthogonalLoop=1;jettySize=auto;html=1;entryX=0.5;entryY=1;entryDx=0;entryDy=0;strokeColor=#00CC00;" edge="1" parent="1" source="-ehJBVwQ3Iy3KnU1lAVW-20" target="-ehJBVwQ3Iy3KnU1lAVW-3">
          <mxGeometry relative="1" as="geometry">
            <mxPoint x="1020" y="610" as="targetPoint" />
          </mxGeometry>
        </mxCell>
        <mxCell id="-ehJBVwQ3Iy3KnU1lAVW-33" value="&lt;span style=&quot;font-size: 16px;&quot;&gt;客户填写表单内容后提交&lt;/span&gt;" style="edgeLabel;html=1;align=center;verticalAlign=middle;resizable=0;points=[];" vertex="1" connectable="0" parent="-ehJBVwQ3Iy3KnU1lAVW-32">
          <mxGeometry x="-0.1623" relative="1" as="geometry">
            <mxPoint as="offset" />
          </mxGeometry>
        </mxCell>
        <mxCell id="-ehJBVwQ3Iy3KnU1lAVW-20" value="&lt;font style=&quot;font-size: 16px;&quot;&gt;客户&lt;/font&gt;" style="ellipse;whiteSpace=wrap;html=1;fillColor=#d5e8d4;strokeColor=#82b366;" vertex="1" parent="1">
          <mxGeometry x="65" y="570" width="120" height="80" as="geometry" />
        </mxCell>
        <mxCell id="-ehJBVwQ3Iy3KnU1lAVW-25" style="edgeStyle=orthogonalEdgeStyle;rounded=0;orthogonalLoop=1;jettySize=auto;html=1;entryX=0.5;entryY=1;entryDx=0;entryDy=0;exitX=0.5;exitY=1;exitDx=0;exitDy=0;strokeColor=#FF8000;" edge="1" parent="1" source="-ehJBVwQ3Iy3KnU1lAVW-2" target="-ehJBVwQ3Iy3KnU1lAVW-1">
          <mxGeometry relative="1" as="geometry">
            <mxPoint x="350" y="454" as="targetPoint" />
            <mxPoint x="690" y="450" as="sourcePoint" />
            <Array as="points">
              <mxPoint x="690" y="530" />
              <mxPoint x="340" y="530" />
            </Array>
          </mxGeometry>
        </mxCell>
        <mxCell id="-ehJBVwQ3Iy3KnU1lAVW-26" value="&lt;span style=&quot;font-size: 16px;&quot;&gt;外发工单链接&lt;/span&gt;" style="edgeLabel;html=1;align=center;verticalAlign=middle;resizable=0;points=[];" vertex="1" connectable="0" parent="-ehJBVwQ3Iy3KnU1lAVW-25">
          <mxGeometry x="-0.0591" y="-1" relative="1" as="geometry">
            <mxPoint x="-20" as="offset" />
          </mxGeometry>
        </mxCell>
        <mxCell id="-ehJBVwQ3Iy3KnU1lAVW-28" style="edgeStyle=orthogonalEdgeStyle;rounded=0;orthogonalLoop=1;jettySize=auto;html=1;exitX=0.5;exitY=0;exitDx=0;exitDy=0;strokeColor=#FF8000;" edge="1" parent="1" source="-ehJBVwQ3Iy3KnU1lAVW-1">
          <mxGeometry relative="1" as="geometry">
            <mxPoint x="130" y="380" as="targetPoint" />
            <mxPoint x="460" y="240" as="sourcePoint" />
            <Array as="points">
              <mxPoint x="340" y="322" />
              <mxPoint x="130" y="322" />
              <mxPoint x="130" y="370" />
            </Array>
          </mxGeometry>
        </mxCell>
        <mxCell id="-ehJBVwQ3Iy3KnU1lAVW-29" value="&lt;span style=&quot;font-size: 16px;&quot;&gt;获取外发链接&lt;/span&gt;" style="edgeLabel;html=1;align=center;verticalAlign=middle;resizable=0;points=[];" vertex="1" connectable="0" parent="-ehJBVwQ3Iy3KnU1lAVW-28">
          <mxGeometry x="-0.0591" y="-1" relative="1" as="geometry">
            <mxPoint x="-20" as="offset" />
          </mxGeometry>
        </mxCell>
        <mxCell id="-ehJBVwQ3Iy3KnU1lAVW-30" value="" style="endArrow=classic;html=1;rounded=0;strokeColor=#00CC00;" edge="1" parent="1">
          <mxGeometry width="50" height="50" relative="1" as="geometry">
            <mxPoint x="124.5" y="480" as="sourcePoint" />
            <mxPoint x="124.5" y="570" as="targetPoint" />
          </mxGeometry>
        </mxCell>
        <mxCell id="-ehJBVwQ3Iy3KnU1lAVW-31" value="&lt;font style=&quot;font-size: 16px;&quot;&gt;将外发工单链接给客户&lt;/font&gt;" style="edgeLabel;html=1;align=center;verticalAlign=middle;resizable=0;points=[];" vertex="1" connectable="0" parent="-ehJBVwQ3Iy3KnU1lAVW-30">
          <mxGeometry x="0.04" y="1" relative="1" as="geometry">
            <mxPoint as="offset" />
          </mxGeometry>
        </mxCell>
        <mxCell id="-ehJBVwQ3Iy3KnU1lAVW-72" style="edgeStyle=orthogonalEdgeStyle;rounded=0;orthogonalLoop=1;jettySize=auto;html=1;entryX=0.5;entryY=1;entryDx=0;entryDy=0;" edge="1" parent="1" source="-ehJBVwQ3Iy3KnU1lAVW-38" target="-ehJBVwQ3Iy3KnU1lAVW-41">
          <mxGeometry relative="1" as="geometry" />
        </mxCell>
        <mxCell id="-ehJBVwQ3Iy3KnU1lAVW-73" value="" style="edgeStyle=orthogonalEdgeStyle;rounded=0;orthogonalLoop=1;jettySize=auto;html=1;" edge="1" parent="1" source="-ehJBVwQ3Iy3KnU1lAVW-38" target="-ehJBVwQ3Iy3KnU1lAVW-59">
          <mxGeometry relative="1" as="geometry" />
        </mxCell>
        <mxCell id="-ehJBVwQ3Iy3KnU1lAVW-38" value="&lt;font style=&quot;font-size: 14px;&quot;&gt;ICS系统&lt;/font&gt;" style="rounded=1;whiteSpace=wrap;html=1;strokeWidth=1;fillWeight=4;hachureGap=8;hachureAngle=45;fillColor=#dae8fc;sketch=1;strokeColor=#6c8ebf;shadow=0;glass=0;" vertex="1" parent="1">
          <mxGeometry x="640" y="890" width="140" height="52" as="geometry" />
        </mxCell>
        <mxCell id="-ehJBVwQ3Iy3KnU1lAVW-71" style="edgeStyle=orthogonalEdgeStyle;rounded=0;orthogonalLoop=1;jettySize=auto;html=1;entryX=0.5;entryY=0;entryDx=0;entryDy=0;" edge="1" parent="1" source="-ehJBVwQ3Iy3KnU1lAVW-41" target="-ehJBVwQ3Iy3KnU1lAVW-38">
          <mxGeometry relative="1" as="geometry" />
        </mxCell>
        <mxCell id="-ehJBVwQ3Iy3KnU1lAVW-75" value="&lt;font style=&quot;font-size: 16px;&quot;&gt;交互&lt;/font&gt;" style="edgeLabel;html=1;align=center;verticalAlign=middle;resizable=0;points=[];" vertex="1" connectable="0" parent="-ehJBVwQ3Iy3KnU1lAVW-71">
          <mxGeometry x="-0.0154" relative="1" as="geometry">
            <mxPoint as="offset" />
          </mxGeometry>
        </mxCell>
        <mxCell id="-ehJBVwQ3Iy3KnU1lAVW-41" value="&lt;font style=&quot;font-size: 14px;&quot;&gt;泛微OA&lt;/font&gt;" style="rounded=1;whiteSpace=wrap;html=1;strokeWidth=1;fillWeight=4;hachureGap=8;hachureAngle=45;fillColor=#ffe6cc;sketch=1;strokeColor=#d79b00;shadow=0;glass=0;" vertex="1" parent="1">
          <mxGeometry x="640" y="760" width="140" height="52" as="geometry" />
        </mxCell>
        <mxCell id="-ehJBVwQ3Iy3KnU1lAVW-61" style="edgeStyle=orthogonalEdgeStyle;rounded=0;orthogonalLoop=1;jettySize=auto;html=1;entryX=0;entryY=0.5;entryDx=0;entryDy=0;" edge="1" parent="1" source="-ehJBVwQ3Iy3KnU1lAVW-46" target="-ehJBVwQ3Iy3KnU1lAVW-38">
          <mxGeometry relative="1" as="geometry" />
        </mxCell>
        <mxCell id="-ehJBVwQ3Iy3KnU1lAVW-66" value="&lt;font style=&quot;font-size: 16px;&quot;&gt;自动创建工单&lt;/font&gt;" style="edgeLabel;html=1;align=center;verticalAlign=middle;resizable=0;points=[];" vertex="1" connectable="0" parent="-ehJBVwQ3Iy3KnU1lAVW-61">
          <mxGeometry x="-0.0486" y="1" relative="1" as="geometry">
            <mxPoint x="14" y="1" as="offset" />
          </mxGeometry>
        </mxCell>
        <mxCell id="-ehJBVwQ3Iy3KnU1lAVW-46" value="&lt;font style=&quot;font-size: 14px;&quot;&gt;外发页面&lt;/font&gt;" style="rounded=1;whiteSpace=wrap;html=1;strokeWidth=1;fillWeight=4;hachureGap=8;hachureAngle=45;sketch=1;shadow=0;glass=0;fillColor=#fff2cc;strokeColor=#d6b656;" vertex="1" parent="1">
          <mxGeometry x="320" y="890" width="140" height="52" as="geometry" />
        </mxCell>
        <mxCell id="-ehJBVwQ3Iy3KnU1lAVW-49" value="运营" style="shape=umlActor;verticalLabelPosition=bottom;verticalAlign=top;html=1;fontSize=16;fontColor=#000000;" vertex="1" parent="1">
          <mxGeometry x="960" y="876" width="30" height="60" as="geometry" />
        </mxCell>
        <mxCell id="-ehJBVwQ3Iy3KnU1lAVW-60" style="edgeStyle=orthogonalEdgeStyle;rounded=0;orthogonalLoop=1;jettySize=auto;html=1;entryX=0;entryY=0.5;entryDx=0;entryDy=0;" edge="1" parent="1" source="-ehJBVwQ3Iy3KnU1lAVW-52" target="-ehJBVwQ3Iy3KnU1lAVW-46">
          <mxGeometry relative="1" as="geometry" />
        </mxCell>
        <mxCell id="-ehJBVwQ3Iy3KnU1lAVW-65" value="&lt;font style=&quot;font-size: 16px;&quot;&gt;填写工单&lt;/font&gt;" style="edgeLabel;html=1;align=center;verticalAlign=middle;resizable=0;points=[];" vertex="1" connectable="0" parent="-ehJBVwQ3Iy3KnU1lAVW-60">
          <mxGeometry x="0.0246" y="1" relative="1" as="geometry">
            <mxPoint x="-7" y="1" as="offset" />
          </mxGeometry>
        </mxCell>
        <mxCell id="-ehJBVwQ3Iy3KnU1lAVW-52" value="&lt;font style=&quot;font-size: 14px;&quot;&gt;客户&lt;/font&gt;" style="ellipse;whiteSpace=wrap;html=1;fillColor=#d5e8d4;strokeColor=#82b366;" vertex="1" parent="1">
          <mxGeometry x="70" y="876" width="120" height="80" as="geometry" />
        </mxCell>
        <mxCell id="-ehJBVwQ3Iy3KnU1lAVW-74" style="edgeStyle=orthogonalEdgeStyle;rounded=0;orthogonalLoop=1;jettySize=auto;html=1;entryX=0.5;entryY=1;entryDx=0;entryDy=0;" edge="1" parent="1" source="-ehJBVwQ3Iy3KnU1lAVW-59" target="-ehJBVwQ3Iy3KnU1lAVW-38">
          <mxGeometry relative="1" as="geometry" />
        </mxCell>
        <mxCell id="-ehJBVwQ3Iy3KnU1lAVW-59" value="&lt;font style=&quot;font-size: 14px;&quot;&gt;钉钉宜搭&lt;/font&gt;" style="rounded=1;whiteSpace=wrap;html=1;strokeWidth=1;fillWeight=4;hachureGap=8;hachureAngle=45;fillColor=#f5f5f5;sketch=1;strokeColor=#666666;shadow=0;glass=0;fontColor=#333333;" vertex="1" parent="1">
          <mxGeometry x="640" y="1020" width="140" height="52" as="geometry" />
        </mxCell>
        <mxCell id="-ehJBVwQ3Iy3KnU1lAVW-62" value="" style="endArrow=classic;html=1;rounded=0;entryX=0;entryY=0.5;entryDx=0;entryDy=0;exitX=1;exitY=0;exitDx=0;exitDy=0;" edge="1" parent="1" source="-ehJBVwQ3Iy3KnU1lAVW-46" target="-ehJBVwQ3Iy3KnU1lAVW-41">
          <mxGeometry width="50" height="50" relative="1" as="geometry">
            <mxPoint x="360" y="760" as="sourcePoint" />
            <mxPoint x="360" y="850" as="targetPoint" />
          </mxGeometry>
        </mxCell>
        <mxCell id="-ehJBVwQ3Iy3KnU1lAVW-67" value="&lt;font style=&quot;font-size: 16px;&quot;&gt;自动创建OA流程&lt;/font&gt;" style="edgeLabel;html=1;align=center;verticalAlign=middle;resizable=0;points=[];" vertex="1" connectable="0" parent="-ehJBVwQ3Iy3KnU1lAVW-62">
          <mxGeometry x="-0.1181" y="2" relative="1" as="geometry">
            <mxPoint x="171" y="-102" as="offset" />
          </mxGeometry>
        </mxCell>
        <mxCell id="-ehJBVwQ3Iy3KnU1lAVW-63" value="" style="endArrow=classic;html=1;rounded=0;entryX=0;entryY=0.5;entryDx=0;entryDy=0;exitX=1;exitY=1;exitDx=0;exitDy=0;" edge="1" parent="1" source="-ehJBVwQ3Iy3KnU1lAVW-46" target="-ehJBVwQ3Iy3KnU1lAVW-59">
          <mxGeometry width="50" height="50" relative="1" as="geometry">
            <mxPoint x="410" y="1044" as="sourcePoint" />
            <mxPoint x="550" y="940" as="targetPoint" />
          </mxGeometry>
        </mxCell>
        <mxCell id="-ehJBVwQ3Iy3KnU1lAVW-70" value="&lt;font style=&quot;font-size: 16px;&quot;&gt;自动创建宜搭流程&lt;/font&gt;" style="edgeLabel;html=1;align=center;verticalAlign=middle;resizable=0;points=[];" vertex="1" connectable="0" parent="1">
          <mxGeometry x="709.9990315427493" y="1090.002730849045" as="geometry" />
        </mxCell>
        <mxCell id="-ehJBVwQ3Iy3KnU1lAVW-76" value="&lt;font style=&quot;font-size: 16px;&quot;&gt;交互&lt;/font&gt;" style="edgeLabel;html=1;align=center;verticalAlign=middle;resizable=0;points=[];" vertex="1" connectable="0" parent="1">
          <mxGeometry x="720" y="860" as="geometry">
            <mxPoint x="-8" y="121" as="offset" />
          </mxGeometry>
        </mxCell>
        <mxCell id="-ehJBVwQ3Iy3KnU1lAVW-77" value="" style="endArrow=classic;html=1;rounded=0;exitX=1;exitY=0.5;exitDx=0;exitDy=0;entryX=0;entryY=0.658;entryDx=0;entryDy=0;entryPerimeter=0;" edge="1" parent="1" source="-ehJBVwQ3Iy3KnU1lAVW-38" target="-ehJBVwQ3Iy3KnU1lAVW-49">
          <mxGeometry width="50" height="50" relative="1" as="geometry">
            <mxPoint x="810" y="915.5" as="sourcePoint" />
            <mxPoint x="910" y="915.5" as="targetPoint" />
          </mxGeometry>
        </mxCell>
        <mxCell id="-ehJBVwQ3Iy3KnU1lAVW-78" value="" style="endArrow=classic;html=1;rounded=0;exitX=1;exitY=0.5;exitDx=0;exitDy=0;entryX=0;entryY=0.3333333333333333;entryDx=0;entryDy=0;entryPerimeter=0;" edge="1" parent="1" source="-ehJBVwQ3Iy3KnU1lAVW-41" target="-ehJBVwQ3Iy3KnU1lAVW-49">
          <mxGeometry width="50" height="50" relative="1" as="geometry">
            <mxPoint x="870" y="760" as="sourcePoint" />
            <mxPoint x="950" y="700" as="targetPoint" />
          </mxGeometry>
        </mxCell>
        <mxCell id="-ehJBVwQ3Iy3KnU1lAVW-79" value="" style="endArrow=classic;html=1;rounded=0;exitX=1;exitY=0.5;exitDx=0;exitDy=0;entryX=0;entryY=1;entryDx=0;entryDy=0;entryPerimeter=0;" edge="1" parent="1" source="-ehJBVwQ3Iy3KnU1lAVW-59" target="-ehJBVwQ3Iy3KnU1lAVW-49">
          <mxGeometry width="50" height="50" relative="1" as="geometry">
            <mxPoint x="820" y="1046.5" as="sourcePoint" />
            <mxPoint x="1000" y="1045.5" as="targetPoint" />
          </mxGeometry>
        </mxCell>
      </root>
    </mxGraphModel>
  </diagram>
</mxfile>
